# Blender 3.6.5
# www.blender.org
mtllib bottle.mtl
o Bottle
v 0.221960 1.192184 -0.221960
v 0.178419 0.011598 -0.178419
v 0.221960 1.192184 0.221960
v 0.178419 0.011598 0.178419
v -0.221960 1.192184 -0.221960
v -0.178419 0.011598 -0.178419
v -0.221960 1.192184 0.221960
v -0.178419 0.011598 0.178419
v 0.146879 1.267663 -0.146879
v 0.146879 1.267663 0.146879
v -0.146879 1.267663 -0.146879
v -0.146879 1.267663 0.146879
v -0.237891 0.857176 -0.237891
v 0.237891 0.857176 0.237891
v 0.237891 0.857176 -0.237891
v -0.237891 0.857176 0.237891
v 0.102082 1.764198 -0.102082
v 0.102082 1.764085 0.102082
v -0.102082 1.764535 -0.102082
v -0.102082 1.764198 0.102082
v -0.087332 1.430774 -0.087332
v 0.087332 1.430550 -0.087332
v 0.087332 1.430475 0.087332
v -0.087332 1.430550 0.087332
v -0.095986 1.652905 -0.095986
v -0.095986 1.652007 0.095986
v 0.095986 1.652007 -0.095986
v 0.095986 1.651707 0.095986
v 0.237891 0.191718 -0.237891
v -0.237891 0.191718 0.237891
v 0.237891 0.191718 0.237891
v -0.237891 0.191718 -0.237891
v -0.217516 0.009056 0.000000
v 0.000000 0.009056 -0.217516
v 0.227704 0.042829 -0.227704
v -0.235900 1.082077 0.235900
v 0.227704 0.042829 0.227704
v -0.227704 0.042829 -0.227704
v -0.000000 1.192184 0.305195
v 0.305195 1.192184 -0.000000
v -0.000000 0.009056 0.217516
v -0.305195 1.192184 0.000000
v -0.000000 1.192184 -0.305195
v 0.217516 0.009056 0.000000
v 0.000000 0.857176 0.327101
v -0.327101 0.857176 0.000000
v -0.235900 1.082077 -0.235900
v -0.237891 0.510289 0.237891
v 0.188678 1.235734 -0.188678
v -0.188678 1.235734 0.188678
v 0.327101 0.857176 0.000000
v 0.235900 1.082077 0.235900
v 0.000000 1.267663 0.201959
v 0.201959 1.267663 -0.000000
v -0.201959 1.267663 0.000000
v 0.000000 1.267663 -0.201959
v 0.000000 0.857176 -0.327101
v 0.235900 1.082077 -0.235900
v -0.188678 1.235734 -0.188678
v 0.188678 1.235734 0.188678
v 0.000000 1.770633 0.128384
v 0.128384 1.770633 0.000000
v -0.128384 1.770861 -0.000000
v 0.000000 1.770861 -0.128384
v -0.115258 1.728525 -0.115258
v 0.110452 1.333012 -0.110452
v 0.110452 1.333003 0.110452
v -0.115258 1.727861 0.115258
v -0.110452 1.333040 -0.110452
v 0.082611 1.545103 -0.082611
v 0.082611 1.544888 0.082611
v -0.110452 1.333012 0.110452
v 0.000000 1.430484 0.120081
v -0.120081 1.430690 0.000000
v 0.120081 1.430484 -0.000000
v -0.000000 1.430690 -0.120081
v -0.082610 1.545749 -0.082611
v -0.082611 1.545103 0.082610
v 0.115258 1.727861 -0.115258
v 0.115258 1.727642 0.115258
v 0.000000 1.651745 0.131980
v -0.131980 1.652568 0.000000
v 0.131980 1.651745 -0.000000
v -0.000000 1.652568 -0.131980
v 0.237891 0.510289 -0.237891
v -0.227704 0.042829 0.227704
v 0.237891 0.510289 0.237891
v -0.237891 0.510289 -0.237891
v 0.000000 0.191718 -0.327101
v 0.327101 0.191718 0.000000
v -0.327101 0.191718 0.000000
v 0.000000 0.191718 0.327101
v 0.000000 1.235734 0.259433
v -0.000000 1.082077 0.324362
v -0.324362 1.082077 -0.000000
v 0.000000 0.003722 -0.000000
v 0.324362 1.082077 0.000000
v 0.000000 1.082077 -0.324362
v 0.000000 1.728911 -0.159459
v -0.327101 0.510289 0.000000
v 0.000000 1.235734 -0.259433
v 0.000000 0.510289 -0.327101
v 0.000000 0.510289 0.327101
v 0.327101 0.510289 0.000000
v -0.259433 1.235734 0.000000
v 0.259433 1.235734 -0.000000
v 0.000000 1.784374 0.000000
v 0.159459 1.728313 0.000000
v -0.159459 1.728911 -0.000000
v -0.000000 1.728313 0.159459
v 0.000000 1.333004 0.151872
v -0.151872 1.333030 0.000000
v 0.151872 1.333004 0.000000
v 0.000000 1.333030 -0.151872
v -0.000000 1.544915 0.113589
v -0.113589 1.545507 -0.000000
v 0.113589 1.544915 0.000000
v 0.000000 1.545507 -0.113589
v -0.000000 0.042578 -0.313334
v 0.313334 0.042578 -0.000000
v -0.313334 0.042578 0.000000
v 0.000000 0.042578 0.313334
vn -0.6656 0.3377 0.6656
vn -0.0000 0.3380 0.9411
vn -0.0000 0.7833 0.6216
vn -0.4348 0.7886 0.4348
vn 0.6656 0.3377 0.6656
vn 0.4348 0.7886 0.4348
vn 0.4407 0.7820 0.4407
vn -0.0000 0.7678 0.6407
vn -0.4407 0.7820 0.4407
vn 0.7071 0.0062 0.7071
vn 0.7045 0.0859 0.7045
vn -0.0000 0.0845 0.9964
vn -0.0000 0.0061 1.0000
vn -0.7045 0.0859 0.7045
vn -0.7071 0.0062 0.7071
vn -0.9964 0.0845 -0.0000
vn -1.0000 0.0061 -0.0000
vn -0.9411 0.3380 -0.0000
vn -0.6656 0.3377 -0.6656
vn -0.7045 0.0859 -0.7045
vn -0.7071 0.0062 -0.7071
vn -0.1814 -0.9665 -0.1814
vn -0.0000 -0.9730 -0.2306
vn -0.0000 -1.0000 -0.0000
vn -0.2306 -0.9730 -0.0000
vn 0.1814 -0.9665 -0.1814
vn 0.2306 -0.9730 -0.0000
vn 0.1814 -0.9665 0.1814
vn -0.0000 -0.9730 0.2306
vn -0.1814 -0.9665 0.1814
vn 0.7071 0.0062 -0.7071
vn 0.7045 0.0859 -0.7045
vn 0.9964 0.0845 -0.0000
vn 1.0000 0.0061 -0.0000
vn 0.6656 0.3377 -0.6656
vn 0.9411 0.3380 -0.0000
vn -0.0000 0.0845 -0.9964
vn -0.0000 0.0061 -1.0000
vn -0.0000 0.3380 -0.9411
vn 0.6814 -0.2645 -0.6825
vn -0.0009 -0.2561 -0.9666
vn -0.0000 0.0402 -0.9992
vn 0.7065 0.0447 -0.7063
vn -0.6819 -0.2647 -0.6819
vn -0.7064 0.0452 -0.7064
vn 0.0001 0.0402 -0.9992
vn -0.5001 0.7069 -0.5002
vn 0.0015 0.7414 -0.6711
vn 0.7066 0.0447 -0.7062
vn 0.5030 0.7044 -0.5008
vn -0.7064 -0.0455 0.7064
vn -0.7071 -0.0000 0.7071
vn -1.0000 -0.0000 -0.0000
vn -0.9990 -0.0445 -0.0000
vn -0.7071 -0.0000 -0.7071
vn -0.7064 -0.0455 -0.7064
vn -0.0000 0.7833 -0.6216
vn 0.4348 0.7886 -0.4348
vn -0.4348 0.7886 -0.4348
vn -0.4408 0.7819 -0.4408
vn -0.0000 0.7677 -0.6408
vn 0.4407 0.7820 -0.4407
vn -0.0000 -0.0000 -1.0000
vn -0.0000 -0.0445 -0.9990
vn 0.7071 -0.0000 -0.7071
vn 0.7064 -0.0455 -0.7064
vn 0.7064 -0.0455 0.7064
vn 0.7071 -0.0000 0.7071
vn -0.0000 -0.0000 1.0000
vn -0.0000 -0.0445 0.9990
vn 1.0000 -0.0000 -0.0000
vn 0.9990 -0.0445 -0.0000
vn -0.6216 0.7833 -0.0000
vn -0.6408 0.7677 -0.0000
vn 0.6216 0.7833 -0.0000
vn 0.6407 0.7678 -0.0000
vn 0.0016 0.7414 -0.6711
vn 0.0010 1.0000 0.0010
vn 0.6738 0.7389 0.0006
vn -0.5002 0.7069 -0.5001
vn -0.6711 0.7414 0.0016
vn -0.5008 0.7044 0.5030
vn 0.0006 0.7389 0.6738
vn 0.5027 0.7032 0.5028
vn 0.6819 -0.2644 0.6820
vn 0.9667 -0.2559 -0.0003
vn 0.9992 0.0398 0.0001
vn 0.7064 0.0447 0.7064
vn 0.6813 -0.2645 -0.6825
vn 0.9992 0.0398 -0.0000
vn 0.5028 0.7032 0.5027
vn -0.9666 -0.2561 -0.0009
vn -0.9992 0.0402 0.0001
vn -0.6825 -0.2645 0.6814
vn -0.7063 0.0447 0.7065
vn -0.9992 0.0402 -0.0000
vn -0.7062 0.0447 0.7066
vn -0.6711 0.7414 0.0015
vn -0.6825 -0.2645 0.6813
vn -0.0003 -0.2559 0.9667
vn -0.0000 0.0398 0.9992
vn 0.6820 -0.2644 0.6819
vn 0.0001 0.0398 0.9992
vn -0.4408 0.7820 0.4407
vn -0.0000 0.4658 0.8849
vn -0.6198 0.4812 0.6199
vn 0.0001 0.7677 0.6408
vn 0.6198 0.4814 0.6198
vn -0.0000 0.4657 0.8849
vn 0.6942 0.1898 0.6943
vn 0.0001 0.1825 0.9832
vn -0.0000 0.1825 0.9832
vn -0.6942 0.1896 0.6943
vn -0.4407 0.7820 -0.4408
vn -0.8851 0.4654 0.0001
vn -0.6200 0.4809 -0.6200
vn -0.8851 0.4654 -0.0000
vn -0.9833 0.1822 0.0001
vn -0.6199 0.4809 -0.6200
vn -0.6943 0.1893 -0.6943
vn 0.6408 0.7677 0.0001
vn 0.8849 0.4658 -0.0000
vn 0.4407 0.7820 -0.4408
vn 0.6199 0.4812 -0.6198
vn 0.8849 0.4657 -0.0000
vn 0.6943 0.1896 -0.6942
vn 0.9832 0.1825 -0.0000
vn 0.9832 0.1825 0.0001
vn 0.6943 0.1898 0.6942
vn -0.0000 0.4654 -0.8851
vn -0.4408 0.7820 -0.4407
vn 0.0001 0.4654 -0.8851
vn -0.6200 0.4809 -0.6199
vn 0.0001 0.1822 -0.9833
vn -0.6942 0.1896 0.6944
vn -0.0001 -0.0563 0.9984
vn -0.7061 -0.0585 0.7057
vn 0.6943 0.1898 0.6943
vn 0.7059 -0.0585 0.7059
vn -0.6943 0.1893 -0.6944
vn -0.9984 -0.0562 -0.0003
vn -0.7059 -0.0585 -0.7059
vn 0.9984 -0.0563 -0.0001
vn 0.6944 0.1896 -0.6942
vn 0.7057 -0.0585 -0.7061
vn 0.9984 -0.0562 -0.0001
vn -0.0003 -0.0562 -0.9984
vn -0.6944 0.1893 -0.6943
vn -0.1813 -0.9666 -0.1814
vn -0.6706 -0.3174 -0.6705
vn -0.0001 -0.3207 -0.9472
vn -0.0000 -0.9731 -0.2306
vn -0.0000 -0.3207 -0.9472
vn 0.6706 -0.3174 -0.6705
vn 0.0001 -0.3207 -0.9472
vn 0.1813 -0.9666 -0.1814
vn 0.1814 -0.9666 -0.1813
vn 0.6705 -0.3174 -0.6706
vn 0.9472 -0.3207 -0.0001
vn 0.2306 -0.9731 -0.0000
vn 0.9472 -0.3207 -0.0000
vn 0.6705 -0.3174 0.6706
vn 0.9472 -0.3207 0.0001
vn 0.1814 -0.9666 0.1813
vn -0.1814 -0.9666 0.1813
vn -0.6705 -0.3174 0.6706
vn -0.9472 -0.3207 0.0001
vn -0.2306 -0.9731 -0.0000
vn -0.9472 -0.3207 -0.0000
vn -0.6705 -0.3174 -0.6706
vn -0.9472 -0.3207 -0.0001
vn -0.1814 -0.9666 -0.1813
vn 0.1813 -0.9666 0.1814
vn 0.6706 -0.3174 0.6705
vn 0.0001 -0.3207 0.9472
vn -0.0000 -0.9731 0.2305
vn -0.0000 -0.3207 0.9472
vn -0.6706 -0.3174 0.6705
vn -0.0001 -0.3207 0.9472
vn -0.1813 -0.9666 0.1814
vt 0.405555 0.526831
vt 0.405555 0.695044
vt 0.375148 0.683638
vt 0.375148 0.540648
vt 0.294949 0.821780
vt 0.281127 0.791370
vt 0.263768 0.753181
vt 0.336960 0.669315
vt 0.336960 0.558002
vt 0.501886 0.948338
vt 0.444947 0.946519
vt 0.444002 0.811836
vt 0.500933 0.812519
vt 0.417115 0.933783
vt 0.416225 0.807059
vt 0.416225 0.638846
vt 0.444002 0.633059
vt 0.500933 0.632232
vt 0.793771 0.316105
vt 0.736832 0.314285
vt 0.735891 0.179604
vt 0.792822 0.180287
vt 0.708999 0.301549
vt 0.708113 0.174827
vt 0.708113 0.006614
vt 0.735891 0.000827
vt 0.792822 0.000000
vt 0.371180 0.134173
vt 0.352584 0.262442
vt 0.208112 0.208112
vt 0.262442 0.063641
vt 0.282052 0.371180
vt 0.153783 0.352584
vt 0.045045 0.282052
vt 0.063641 0.153783
vt 0.134173 0.045045
vt 0.501887 0.632232
vt 0.444948 0.630413
vt 0.444002 0.495725
vt 0.500933 0.496408
vt 0.417115 0.617677
vt 0.416225 0.490949
vt 0.416225 0.322736
vt 0.444002 0.316948
vt 0.500933 0.316121
vt 0.622454 0.000000
vt 0.679393 0.001819
vt 0.680336 0.136516
vt 0.623405 0.135834
vt 0.707226 0.014554
vt 0.708113 0.141292
vt 0.708113 0.309505
vt 0.680336 0.315294
vt 0.623405 0.316121
vt 0.889295 0.654969
vt 0.889212 0.582226
vt 0.908668 0.575319
vt 0.908668 0.662912
vt 0.844662 0.879086
vt 0.845202 0.806345
vt 0.862868 0.798473
vt 0.862868 0.886068
vt 0.773250 0.316121
vt 0.860845 0.316121
vt 0.855465 0.328195
vt 0.781147 0.336705
vt 0.708116 0.374691
vt 0.720195 0.380070
vt 0.962267 0.316105
vt 0.881604 0.316105
vt 0.880655 0.180287
vt 0.961318 0.180287
vt 0.880655 0.000000
vt 0.961318 0.000000
vt 0.000000 0.711174
vt -0.000000 0.542961
vt 0.030404 0.554359
vt 0.030404 0.697349
vt 0.110606 0.416225
vt 0.124425 0.446627
vt 0.141781 0.484811
vt 0.068589 0.568676
vt 0.068589 0.679989
vt 0.453958 0.000000
vt 0.534621 -0.000000
vt 0.535572 0.135834
vt 0.454909 0.135834
vt 0.535572 0.316121
vt 0.454909 0.316121
vt 0.670382 0.948338
vt 0.589719 0.948338
vt 0.588766 0.812519
vt 0.669429 0.812519
vt 0.588766 0.632232
vt 0.669429 0.632232
vt 0.670383 0.632232
vt 0.589720 0.632232
vt 0.588766 0.496408
vt 0.669429 0.496408
vt 0.588766 0.316121
vt 0.669429 0.316121
vt 0.278819 0.416225
vt 0.267415 0.446627
vt 0.253094 0.484811
vt 0.126736 0.821780
vt 0.138136 0.791370
vt 0.152455 0.753181
vt 0.813768 0.421765
vt 0.728706 0.454387
vt 0.898829 0.389146
vt 0.907339 0.463465
vt 0.846388 0.506828
vt 0.772070 0.515339
vt 0.888996 0.790510
vt 0.888860 0.717767
vt 0.908381 0.710880
vt 0.908381 0.798473
vt 0.881074 0.805455
vt 0.880534 0.878196
vt 0.862868 0.886068
vt 0.862868 0.798473
vt 0.708116 0.462286
vt 0.766686 0.527420
vt 0.789004 0.654963
vt 0.788919 0.582220
vt 0.808395 0.575372
vt 0.808292 0.662964
vt 0.808250 0.879086
vt 0.808790 0.806345
vt 0.826456 0.798473
vt 0.826456 0.886068
vt 0.919415 0.381255
vt 0.919415 0.468850
vt 0.788783 0.790508
vt 0.788716 0.717765
vt 0.808250 0.710917
vt 0.808131 0.798510
vt 0.844662 0.805455
vt 0.844122 0.878196
vt 0.854281 0.527420
vt 0.303678 0.656830
vt 0.303678 0.573123
vt 0.248639 0.719896
vt 0.239033 0.698765
vt 0.282552 0.648900
vt 0.708118 0.796514
vt 0.708116 0.712808
vt 0.732629 0.720731
vt 0.732645 0.786915
vt 0.240612 0.518083
vt 0.156905 0.518083
vt 0.282552 0.582716
vt 0.232687 0.539197
vt 0.708119 0.660969
vt 0.708116 0.577263
vt 0.732675 0.585186
vt 0.732697 0.651371
vt 0.164932 0.719896
vt 0.101865 0.664857
vt 0.122984 0.655247
vt 0.172849 0.698765
vt 0.808418 0.796677
vt 0.808250 0.712971
vt 0.832779 0.720844
vt 0.832909 0.787029
vt 0.101865 0.581150
vt 0.166502 0.539197
vt 0.122984 0.589062
vt 0.808650 0.661226
vt 0.808395 0.577520
vt 0.832978 0.585365
vt 0.833147 0.651549
vt 0.761568 0.722349
vt 0.761616 0.784956
vt 0.732276 0.670871
vt 0.761230 0.675184
vt 0.788322 0.662964
vt 0.761713 0.586804
vt 0.761774 0.649411
vt 0.732291 0.535327
vt 0.761281 0.539640
vt 0.788394 0.527420
vt 0.861721 0.722404
vt 0.861840 0.785011
vt 0.832345 0.670983
vt 0.861343 0.675238
vt 0.888432 0.662964
vt 0.862020 0.586892
vt 0.862112 0.649499
vt 0.832496 0.535500
vt 0.861606 0.539723
vt 0.888745 0.527420
vt 0.416225 0.113749
vt 0.416225 0.286375
vt 0.416225 0.009307
vt 0.417073 0.139264
vt 0.417135 0.311890
vt 0.302476 0.416225
vt 0.129850 0.416225
vt 0.708116 0.622925
vt 0.707265 0.492977
vt 0.707203 0.320351
vt -0.000000 0.302476
vt 0.113749 -0.000000
vt 0.286375 0.000000
vt 1.000000 0.306797
vt 0.999154 0.176855
vt 0.999092 0.004229
vt 0.000000 0.129850
vt 0.708116 0.939031
vt 0.707265 0.809088
vt 0.707203 0.636462
s 0
g off
usemtl Material
f 7/1/1 39/2/2 93/3/3 50/4/4
f 39/2/2 3/5/5 60/6/6 93/3/3
f 93/3/3 60/6/6 10/7/7 53/8/8
f 50/4/4 93/3/3 53/8/8 12/9/9
f 14/10/10 52/11/11 94/12/12 45/13/13
f 52/11/11 3/14/5 39/15/2 94/12/12
f 94/12/12 39/15/2 7/16/1 36/17/14
f 45/13/13 94/12/12 36/17/14 16/18/15
f 16/19/15 36/20/14 95/21/16 46/22/17
f 36/20/14 7/23/1 42/24/18 95/21/16
f 95/21/16 42/24/18 5/25/19 47/26/20
f 46/22/17 95/21/16 47/26/20 13/27/21
f 6/28/22 34/29/23 96/30/24 33/31/25
f 34/29/23 2/32/26 44/33/27 96/30/24
f 96/30/24 44/33/27 4/34/28 41/35/29
f 33/31/25 96/30/24 41/35/29 8/36/30
f 15/37/31 58/38/32 97/39/33 51/40/34
f 58/38/32 1/41/35 40/42/36 97/39/33
f 97/39/33 40/42/36 3/43/5 52/44/11
f 51/40/34 97/39/33 52/44/11 14/45/10
f 13/46/21 47/47/20 98/48/37 57/49/38
f 47/47/20 5/50/19 43/51/39 98/48/37
f 98/48/37 43/51/39 1/52/35 58/53/32
f 57/49/38 98/48/37 58/53/32 15/54/31
f 27/55/40 84/56/41 99/57/42 79/58/43
f 84/59/41 25/60/44 65/61/45 99/62/46
f 99/63/46 65/64/45 19/65/47 64/66/48
f 79/67/49 99/63/42 64/66/48 17/68/50
f 30/69/51 48/70/52 100/71/53 91/72/54
f 48/70/52 16/19/15 46/22/17 100/71/53
f 100/71/53 46/22/17 13/27/21 88/73/55
f 91/72/54 100/71/53 88/73/55 32/74/56
f 1/75/35 43/76/39 101/77/57 49/78/58
f 43/76/39 5/79/19 59/80/59 101/77/57
f 101/77/57 59/80/59 11/81/60 56/82/61
f 49/78/58 101/77/57 56/82/61 9/83/62
f 32/84/56 88/85/55 102/86/63 89/87/64
f 88/85/55 13/46/21 57/49/38 102/86/63
f 102/86/63 57/49/38 15/54/31 85/88/65
f 89/87/64 102/86/63 85/88/65 29/89/66
f 31/90/67 87/91/68 103/92/69 92/93/70
f 87/91/68 14/10/10 45/13/13 103/92/69
f 103/92/69 45/13/13 16/18/15 48/94/52
f 92/93/70 103/92/69 48/94/52 30/95/51
f 29/96/66 85/97/65 104/98/71 90/99/72
f 85/97/65 15/37/31 51/40/34 104/98/71
f 104/98/71 51/40/34 14/45/10 87/100/68
f 90/99/72 104/98/71 87/100/68 31/101/67
f 5/79/19 42/102/18 105/103/73 59/80/59
f 42/102/18 7/1/1 50/4/4 105/103/73
f 105/103/73 50/4/4 12/9/9 55/104/74
f 59/80/59 105/103/73 55/104/74 11/81/60
f 3/5/5 40/105/36 106/106/75 60/6/6
f 40/105/36 1/75/35 49/78/58 106/106/75
f 106/106/75 49/78/58 9/83/62 54/107/76
f 60/6/6 106/106/75 54/107/76 10/7/7
f 17/68/50 64/66/77 107/108/78 62/109/79
f 64/66/77 19/65/80 63/110/81 107/108/78
f 107/108/78 63/110/81 20/111/82 61/112/83
f 62/109/79 107/108/78 61/112/83 18/113/84
f 28/114/85 83/115/86 108/116/87 80/117/88
f 83/118/86 27/119/89 79/120/43 108/121/90
f 108/122/90 79/67/49 17/68/50 62/109/79
f 80/123/88 108/122/90 62/109/79 18/113/91
f 25/124/44 82/125/92 109/126/93 65/127/45
f 82/128/92 26/129/94 68/130/95 109/131/96
f 109/132/96 68/133/97 20/111/82 63/110/98
f 65/64/45 109/132/93 63/110/98 19/65/80
f 26/134/99 81/135/100 110/136/101 68/137/95
f 81/138/100 28/139/102 80/131/88 110/130/103
f 110/140/101 80/123/88 18/113/84 61/112/83
f 68/133/97 110/140/101 61/112/83 20/111/82
f 12/9/104 53/8/8 111/141/105 72/142/106
f 53/8/107 10/7/7 67/143/108 111/141/105
f 111/141/109 67/143/108 23/144/110 73/145/111
f 72/146/106 111/147/109 73/148/112 24/149/113
f 11/81/114 55/104/74 112/150/115 69/151/116
f 55/104/74 12/9/9 72/142/106 112/150/117
f 112/150/115 72/142/106 24/152/113 74/153/118
f 69/154/119 112/155/115 74/156/118 21/157/120
f 10/7/7 54/107/121 113/158/122 67/143/108
f 54/107/76 9/83/123 66/159/124 113/158/122
f 113/158/125 66/159/124 22/160/126 75/161/127
f 67/162/108 113/163/125 75/164/128 23/165/129
f 9/83/62 56/82/61 114/166/130 66/159/124
f 56/82/61 11/81/131 69/151/116 114/166/132
f 114/166/132 69/151/133 21/167/120 76/168/134
f 66/169/124 114/170/132 76/171/134 22/172/126
f 24/149/135 73/148/112 115/173/136 78/174/137
f 73/148/111 23/175/138 71/176/139 115/173/136
f 115/173/136 71/176/139 28/177/102 81/135/100
f 78/174/137 115/173/136 81/135/100 26/134/99
f 21/157/140 74/156/118 116/178/141 77/179/142
f 74/156/118 24/180/135 78/181/137 116/178/141
f 116/178/141 78/181/137 26/182/94 82/125/92
f 77/179/142 116/178/141 82/125/92 25/124/44
f 23/165/110 75/164/128 117/183/143 71/184/139
f 75/164/127 22/185/144 70/186/145 117/183/143
f 117/183/143 70/186/145 27/187/89 83/115/86
f 71/184/139 117/183/146 83/115/86 28/114/85
f 22/172/144 76/171/134 118/188/147 70/189/145
f 76/171/134 21/190/148 77/191/142 118/188/147
f 118/188/147 77/191/142 25/192/44 84/56/41
f 70/189/145 118/188/147 84/56/41 27/55/40
f 6/28/149 38/193/150 119/194/151 34/29/152
f 38/195/150 32/84/56 89/87/64 119/196/153
f 119/196/153 89/87/64 29/89/66 35/197/154
f 34/29/152 119/194/155 35/198/154 2/32/156
f 2/32/157 35/198/158 120/199/159 44/33/160
f 35/200/158 29/96/66 90/99/72 120/201/161
f 120/201/161 90/99/72 31/101/67 37/202/162
f 44/33/160 120/199/163 37/203/162 4/34/164
f 8/36/165 86/204/166 121/205/167 33/31/168
f 86/206/166 30/69/51 91/72/54 121/207/169
f 121/207/169 91/72/54 32/74/56 38/208/170
f 33/31/168 121/205/171 38/193/170 6/28/172
f 4/34/173 37/203/174 122/209/175 41/35/176
f 37/210/174 31/90/67 92/93/70 122/211/177
f 122/211/177 92/93/70 30/95/51 86/212/178
f 41/35/176 122/209/179 86/204/178 8/36/180
